<?xml version="1.0" encoding="utf-8"?>
<!-- Generator: Adobe Illustrator 25.4.1, SVG Export Plug-In . SVG Version: 6.00 Build 0)  -->
<svg version="1.0" id="katman_1" xmlns="http://www.w3.org/2000/svg" xmlns:xlink="http://www.w3.org/1999/xlink" x="0px" y="0px"
	 viewBox="0 0 1024 768" style="enable-background:new 0 0 1024 768;" xml:space="preserve">
<style type="text/css">
	.st0{fill:#041B64;}
	.st1{fill:#CE0058;}
</style>
<g>
	<g>
		<g>
			<path class="st0" d="M545.3,227.9v-36.1h36.9c0.8,0,1.3,0.4,1.4,0.9c5.1,25.6,28,44.2,54.6,44.2c26.6,0,49.5-18.6,54.6-44.4
				c0.1-0.3,0.6-0.7,1.2-0.7h24.1l1.9,0.1c6.2,0.9,11,6.2,11,12.4v170h-36.9c-0.8,0-1.3-0.4-1.4-0.9c-5.1-25.6-28-44.2-54.6-44.2
				c-26.5-0.1-49.3,18.5-54.6,44.4l-0.2,0.3c-0.3,0.2-0.7,0.4-1,0.4h-37.1l0-36.2c0.1-10-6.9-18.6-16.7-20.6
				c-17-3.3-29.1-17.7-29.1-34.4c0-16.8,12.1-31.2,28.9-34.4C538.5,246.6,545.5,237.9,545.3,227.9z M582.1,172h-46.7
				c-5.5,0-9.9,4.4-9.9,9.9V228c0,0.6-0.4,1.2-1,1.3c-25.9,4.9-44.7,27.5-44.8,53.9c0,26.3,18.9,48.9,45,53.9c0.4,0.1,0.8,0.6,0.8,1
				v46.3c0,5.5,4.4,9.9,9.9,9.9h46.9c9.9,0.1,18.7-6.7,20.8-16.5c3.4-16.7,18.1-28.7,35.2-28.6c17.1,0,31.8,11.9,35.1,28.4
				c2.2,10,10.9,16.8,21,16.7H741c5.5,0,9.9-4.4,9.9-9.9v-180c-0.1-18-14.8-32.5-32.8-32.4c0,0,0,0,0,0h-24
				c-10-0.1-18.6,6.8-20.8,16.5c-3.4,16.7-18.1,28.7-35.2,28.6c-17.1,0-31.8-11.9-35.1-28.4C601,178.8,592.2,171.8,582.1,172
				L582.1,172z"/>
		</g>
		<g>
			<path class="st0" d="M352.5,191.8h172.8l0,36.2c0,0.6-0.4,1.1-0.9,1.2c-25.9,4.9-44.7,27.5-44.8,53.9c0,26.3,18.9,48.9,45,53.9
				l0.4,0.2c0.2,0.2,0.4,0.5,0.4,0.8l0,36.4l-36.9,0c-10-0.1-18.6,6.8-20.8,16.5c-3.4,16.7-18.1,28.7-35.2,28.6
				c-17.1,0-31.9-11.9-35.1-28.4l-0.6-2.2c-2.9-8.7-11.2-14.6-20.4-14.4h-36.8l0-36.2c0-0.6,0.4-1.1,0.9-1.2
				c25.9-4.9,44.7-27.5,44.8-53.9c0-26.3-18.9-48.9-45-53.9c-0.4-0.1-0.8-0.6-0.8-1v-23.8C339.6,197.5,345.4,191.8,352.5,191.8z
				 M535.3,172H352.5c-18.1,0-32.8,14.5-32.8,32.4V228c-0.1,9.9,6.9,18.6,16.7,20.7c17,3.3,29.1,17.7,29.1,34.4
				c0,16.7-12.1,31.2-28.9,34.4c-9.9,2-17,10.7-16.9,20.8v46c0,5.5,4.4,9.9,9.9,9.9h46.9c0.8,0,1.3,0.4,1.4,0.9
				c5.1,25.6,28,44.2,54.6,44.2c26.6,0,49.5-18.6,54.6-44.4c0.1-0.3,0.6-0.7,1.2-0.7h47c5.5,0,9.9-4.4,9.9-9.9v-46.2
				c0.1-10-6.9-18.6-16.7-20.6c-16.7-3-28.9-17.5-29-34.5c0-16.8,12.1-31.2,28.9-34.4c10-2.1,17-10.8,16.9-20.8v-46
				C545.2,176.4,540.8,172,535.3,172L535.3,172z"/>
		</g>
		<g>
			<path class="st0" d="M339.7,430.4v-36.1h36.9c0.8,0,1.3,0.4,1.4,0.9c5.1,25.6,28,44.2,54.6,44.2c26.6,0,49.5-18.6,54.6-44.4
				l0.2-0.3c0.2-0.2,0.6-0.4,1-0.4h37l0,36.2c-0.2,9.9,6.9,18.6,16.7,20.7c17,3.3,29.1,17.7,29.1,34.4c0,16.7-12.1,31.2-28.9,34.4
				l-2.2,0.6c-8.8,2.8-14.7,11-14.6,20.2v36H352.6c-7,0.1-12.8-5.5-12.9-12.6c0,0,0,0,0,0v-23.6c0.1-10-6.9-18.6-16.7-20.6
				c-17-3.3-29.1-17.7-29.1-34.5c0-16.7,12.1-31.2,28.9-34.4C332.7,449.2,339.8,440.5,339.7,430.4L339.7,430.4z M376.5,374.4h-46.7
				c-5.5,0-9.9,4.4-9.9,9.9v46.2c0,0.6-0.4,1.1-1,1.2c-25.9,4.9-44.7,27.5-44.8,53.9c0,26.3,18.9,48.9,45,53.9
				c0.4,0.1,0.8,0.6,0.8,1v23.8c0,17.9,14.7,32.4,32.8,32.4h182.8c5.5,0,9.9-4.4,9.9-9.9v-46.1c0-0.6,0.4-1.1,1-1.2
				c25.9-4.9,44.7-27.5,44.8-53.9c0-26.3-18.9-48.9-45-53.9c-0.4-0.1-0.8-0.5-0.8-1l0-46.3c0-5.5-4.4-9.9-9.9-9.9h-46.9
				c-9.9-0.1-18.7,6.8-20.8,16.5c-3.4,16.7-18.1,28.7-35.1,28.6c-17.1,0-31.9-11.9-35.1-28.4C395.2,381.2,386.5,374.3,376.5,374.4z"
				/>
		</g>
		<g>
			<path class="st1" d="M638.1,349.2c17.1,0,31.8,11.9,35.1,28.4l0.6,2.2c2.9,8.7,11.1,14.6,20.4,14.4H731v170.1l-0.1,1.8
				c-1,6.2-6.5,10.8-12.8,10.7H545.3l0-36.2c0-0.6,0.4-1.1,1-1.2c25.9-4.9,44.7-27.5,44.8-53.9c-0.1-26.4-19-49.1-45-53.9l-0.4-0.2
				c-0.3-0.2-0.4-0.5-0.4-0.9v-36.4l36.9,0c9.9,0.1,18.7-6.7,20.8-16.5C606.4,361.1,621.1,349.1,638.1,349.2L638.1,349.2z
				 M638.1,329.3c-26.6,0-49.5,18.6-54.6,44.4c-0.1,0.3-0.6,0.7-1.2,0.7h-47c-5.5,0-9.9,4.4-9.9,9.9v46.1
				c-0.1,9.9,6.8,18.5,16.7,20.7c17,3.3,29.1,17.7,29.1,34.4s-12.1,31.2-28.9,34.4c-9.9,2-17,10.8-16.9,20.9v46
				c0,5.5,4.4,9.9,9.9,9.9h182.8c18.1,0,32.8-14.5,32.8-32.4v-180c0-5.5-4.4-9.9-9.9-9.9h-46.9c-0.8,0-1.3-0.4-1.4-0.9
				C687.6,347.9,664.7,329.3,638.1,329.3z"/>
		</g>
	</g>
</g>
</svg>
